<?xml version="1.0" encoding="UTF-8" standalone="no"?>
<svg
   xmlns:dc="http://purl.org/dc/elements/1.1/"
   xmlns:cc="http://creativecommons.org/ns#"
   xmlns:rdf="http://www.w3.org/1999/02/22-rdf-syntax-ns#"
   xmlns:svg="http://www.w3.org/2000/svg"
   xmlns="http://www.w3.org/2000/svg"
   xmlns:sodipodi="http://sodipodi.sourceforge.net/DTD/sodipodi-0.dtd"
   xmlns:inkscape="http://www.inkscape.org/namespaces/inkscape"
   version="1.1"
   id="svg833"
   width="1000"
   height="750"
   viewBox="0 0 1000 750"
   sodipodi:docname="The_Autistic_Pride_Flag.svg"
   inkscape:version="1.0.2-2 (e86c870879, 2021-01-15)">
  <metadata
     id="metadata839">
    <rdf:RDF>
      <cc:Work
         rdf:about="">
        <dc:format>image/svg+xml</dc:format>
        <dc:type
           rdf:resource="http://purl.org/dc/dcmitype/StillImage" />
        <dc:title></dc:title>
      </cc:Work>
    </rdf:RDF>
  </metadata>
  <defs
     id="defs837" />
  <sodipodi:namedview
     pagecolor="#ffffff"
     bordercolor="#666666"
     borderopacity="1"
     objecttolerance="10"
     gridtolerance="10"
     guidetolerance="10"
     inkscape:pageopacity="0"
     inkscape:pageshadow="2"
     inkscape:window-width="1920"
     inkscape:window-height="1001"
     id="namedview835"
     showgrid="false"
     inkscape:zoom="0.847"
     inkscape:cx="500"
     inkscape:cy="375"
     inkscape:window-x="-9"
     inkscape:window-y="-9"
     inkscape:window-maximized="1"
     inkscape:current-layer="g841" />
  <g
     inkscape:groupmode="layer"
     inkscape:label="Image"
     id="g841">
    <g
       id="g871"
       transform="translate(2.9043684e-6,2.3612751)">
      <path
         style="fill:#26ac74"
         d="m -2.9043684e-6,695.13873 v -52.5 H 500 1000 v 52.5 52.5 H 500 -2.9043684e-6 Z"
         id="path847" />
      <path
         style="fill:#fac758"
         d="m -2.9043684e-6,373.63873 v -162 H 500 1000 v 162 162 H 500 -2.9043684e-6 Z"
         id="path855"
         sodipodi:nodetypes="ccccccccc" />
      <path
         style="fill:#f8fbfa"
         d="m 271.5,516.16024 -7,-1.29799 -8.11655,-2.09898 -8.11655,-2.09898 -9.17527,-3.54349 -9.17526,-3.54349 -8.08572,-4.47252 -8.08572,-4.47252 -6.12247,-4.37524 -6.12246,-4.37525 -9.1888,-8.65788 -9.1888,-8.65788 -5.38477,-7.21364 -5.38477,-7.21365 -5.14226,-9 -5.14225,-9 -4.41973,-12.5 -4.41973,-12.5 -1.83696,-8.5 -1.83696,-8.5 0.0589,-22.5 0.0589,-22.5 2.56124,-9.57364 2.56124,-9.57364 2.65166,-6.92636 2.65166,-6.92636 2.05583,-4.4932 2.05584,-4.4932 4.53173,-7.5068 4.53174,-7.5068 7.28408,-9 7.28408,-9 7.09531,-6.4447 7.09531,-6.4447 7.59198,-5.64089 7.59198,-5.6409 9.84702,-5.21444 9.84702,-5.21445 8.79471,-3.49049 8.79472,-3.49048 14,-3.51405 14,-3.51404 17,-0.5693 17,-0.56931 9.25965,1.14549 9.25964,1.14549 10.74036,2.56033 10.74035,2.56034 9.5,3.51801 9.5,3.51801 11.5,5.86035 11.5,5.86035 10,6.68444 10,6.68444 7.5,5.56469 7.5,5.5647 12.48039,10.54056 12.48039,10.54055 14.51961,13.43222 14.51961,13.43223 0.30869,0.74385 0.3087,0.74386 3.34569,2.55188 3.3457,2.55189 3.84561,-3.80614 3.84561,-3.80614 14.94893,-13.74877 14.94894,-13.74878 11.05106,-9.25506 11.05107,-9.25506 4.5,-3.21441 4.5,-3.21441 13.46713,-8.98994 13.46713,-8.98994 12.53287,-6.35496 12.53287,-6.35497 4.5,-1.53303 4.5,-1.53303 3.50986,-1.48873 3.50986,-1.48873 11.77745,-3.03765 11.77746,-3.03766 7.99857,-1.16955 7.99857,-1.16955 21.71411,0.50517 21.71412,0.50516 14,3.58982 14,3.58982 8.5,3.37264 8.5,3.37263 7.02195,3.5504 7.02194,3.55039 7.18075,4.88291 7.18075,4.8829 6.50607,5.74752 6.50607,5.74751 6.09711,7.46163 6.09711,7.46162 3.89078,6.40435 3.89078,6.40436 3.48479,6.85587 3.48479,6.85588 4.04957,12.09435 4.04956,12.09436 1.69958,7.40564 1.69957,7.40565 0.0441,22.5 0.0441,22.5 -2.34424,8.96876 -2.34424,8.96877 -4.01826,10.36839 -4.01827,10.36839 -6.12359,10.19589 -6.1236,10.19588 -3.48862,4.46696 -3.48847,4.46696 -10.5127,10.5 -10.51271,10.5 -5.86315,4 -5.86316,4 -5.84281,3.6699 -5.8428,3.6699 -5.8624,2.97905 -5.86239,2.97906 -7.91894,3.18734 -7.91894,3.18734 -11.25472,2.87709 -11.25472,2.87709 -8.66628,1.15327 -8.66628,1.15326 -18.579,-0.46276 -18.579,-0.46276 -13.41669,-3.22158 -13.41669,-3.22159 -10.5654,-3.96854 -10.56539,-3.96855 -10.30883,-5.45616 -10.30883,-5.45616 -8.70908,-5.69674 -8.70909,-5.69675 -9.32562,-7.06085 -9.32562,-7.06086 -3.80888,-3 -3.80888,-3 -5.8655,-4.97161 -5.8655,-4.97162 -5,-4.64259 -5,-4.64259 -14.7264,-13.72699 -14.72641,-13.727 -0.96029,0.3412 -0.96029,0.3412 -16.3133,15.05608 -16.31331,15.05607 -8,6.95862 -8,6.95861 -5,4.11074 -5,4.11074 -5,3.82124 -5,3.82124 -12.5,8.41442 -12.5,8.41443 -13,6.3534 -13,6.3534 -8.5,3.07263 -8.5,3.07264 -12,2.94054 -12,2.94055 -7,1.00252 -7,1.00251 -20,-0.0704 -20,-0.0704 -7,-1.29799 z m 58.88445,-62.00229 10.88446,-2.68741 7.61554,-3.03898 7.61555,-3.03899 5.5,-2.78152 5.5,-2.78152 5.50843,-3.3454 5.50844,-3.3454 3.14594,-2.25 3.14593,-2.25 h 0.71362 0.71361 l 3.31818,-2.75 3.31818,-2.75 5.20615,-4 5.20614,-4 6.60769,-5.56503 6.60769,-5.56503 4.74319,-4.43497 4.74319,-4.43497 11.35402,-10.5 11.35402,-10.5 1.05161,-1.57442 1.05161,-1.57441 -14.09805,-12.92559 -14.09806,-12.92558 -9.05894,-8 -9.05893,-8 -5.49183,-4.54003 -5.49183,-4.54003 -7.5,-5.56858 -7.5,-5.56857 -10,-5.78002 -10,-5.78001 -8.25888,-3.34236 -8.25887,-3.34235 -7.74113,-1.96796 -7.74112,-1.96796 -8.97247,-1.10684 -8.97247,-1.10683 -6.52753,0.64314 -6.52753,0.64314 -9,2.01486 -9,2.01485 -8,3.55865 -8,3.55865 -4,2.57925 -4,2.57925 -5,3.86298 -5,3.86298 -5.66091,6.34433 -5.66091,6.34434 -4.58142,8.14677 -4.58142,8.14677 -1.56315,4.60414 -1.56314,4.60414 -1.54126,7.05165 -1.54125,7.05165 -0.0247,9.5 -0.0247,9.5 2.57653,11.2941 2.57653,11.2941 4.66945,8.85611 4.66944,8.85611 5.5318,6.34979 5.5318,6.34979 5.98371,4.80928 5.9837,4.80927 7.74478,3.894 7.74477,3.894 9.86514,2.5006 9.86513,2.50061 3,0.46374 3,0.46374 12,-0.31431 12,-0.31431 10.88445,-2.6874 z m 374.38515,0.10725 10.2696,-2.67128 6.75599,-3.28794 6.756,-3.28794 6.4744,-4.36924 6.47441,-4.36924 6.81824,-7.07041 6.81825,-7.07042 4.22717,-7 4.22718,-7 1.86679,-3.99297 1.86679,-3.99296 1.90474,-7.00704 1.90474,-7.00703 0.53122,-12 0.53123,-12 -2.1257,-10.5 -2.1257,-10.5 -5.17827,-10.26486 -5.17828,-10.26486 -6.39425,-7.00601 -6.39425,-7.00601 -6.36762,-4.54383 -6.36761,-4.54384 -7.16322,-3.48613 -7.16321,-3.48612 -10.11912,-2.36528 -10.11912,-2.36527 -7.10446,-0.63011 -7.10446,-0.6301 -8.72831,1.08462 -8.72831,1.08462 -8.66723,2.04481 -8.66723,2.04481 -6.5,2.48766 -6.5,2.48765 -9,4.54133 -9,4.54132 -9.91216,6.6378 -9.91215,6.6378 -2.14673,1.5 -2.14672,1.5 -4.94112,3.97654 -4.94112,3.97655 -8,6.98181 -8,6.98181 -7,6.48434 -7,6.48435 -7.70308,7.396 -7.70307,7.39601 1.08548,1.66129 1.08547,1.6613 4.6176,3.8736 4.6176,3.87361 11.5,10.73171 11.5,10.7317 10.5,8.89469 10.5,8.89469 4,3.06063 4,3.06064 10,6.55151 10,6.55151 6,3.08548 6,3.08549 5.87877,2.556 5.87877,2.556 10.12123,2.43909 10.12123,2.43909 2.5,0.47767 2.5,0.47767 12,-0.27152 12,-0.27152 z"
         id="path857" />
      <path
         style="fill:#98d570"
         d="m -2.9043684e-6,589.13873 v -53.5 H 500 1000 v 53.5 53.5 H 500 -2.9043684e-6 Z"
         id="path853" />
      <path
         style="fill:#f68249"
         d="m -2.9043684e-6,158.63873 v -53 H 500 1000 v 53 53 H 500 -2.9043684e-6 Z"
         id="path851" />
      <path
         style="fill:#e43345"
         d="M -2.9043684e-6,51.638725 V -2.3612748 H 500 1000 V 51.638725 105.63873 H 500 -2.9043684e-6 Z"
         id="path849" />
    </g>
  </g>
</svg>
